<?xml version="1.0" encoding="utf-8"?>
<!-- Uploaded to: SVG Repo, www.svgrepo.com, Generator: SVG Repo Mixer Tools -->
<svg fill="#000000" width="800px" height="800px" viewBox="0 0 32 32" version="1.1" xmlns="http://www.w3.org/2000/svg">
<title>chart-line-down</title>
<path d="M10.623 18.146c0.201 0.439 0.637 0.738 1.142 0.738 0.144 0 0.283-0.024 0.411-0.069l-0.009 0.003 4.021-1.375 5.922 6.307h-1.656c-0.69 0-1.25 0.56-1.25 1.25s0.56 1.25 1.25 1.25v0h4.545c0.17-0.001 0.332-0.036 0.479-0.098l-0.008 0.003c0.064-0.034 0.119-0.069 0.171-0.108l-0.003 0.002c0.083-0.041 0.154-0.086 0.219-0.139l-0.002 0.002 0.013-0.018c0.060-0.067 0.113-0.141 0.158-0.221l0.003-0.006c0.041-0.050 0.079-0.106 0.113-0.166l0.003-0.006c0.013-0.043 0.026-0.097 0.035-0.151l0.001-0.007c0.033-0.093 0.056-0.2 0.064-0.312l0-0.004 0.004-0.020v-4.545c0-0.69-0.56-1.25-1.25-1.25s-1.25 0.56-1.25 1.25v0 1.387l-6.291-6.698c-0.228-0.243-0.552-0.395-0.911-0.395-0.145 0-0.284 0.025-0.414 0.070l0.009-0.003-3.705 1.267-4.298-9.595c-0.2-0.439-0.635-0.739-1.141-0.739-0.69 0-1.25 0.56-1.25 1.25 0 0.185 0.040 0.361 0.112 0.519l-0.003-0.008zM30 28.75h-26.75v-26.75c0-0.69-0.56-1.25-1.25-1.25s-1.25 0.56-1.25 1.25v0 28c0 0.69 0.56 1.25 1.25 1.25h28c0.69 0 1.25-0.56 1.25-1.25s-0.56-1.25-1.25-1.25v0z"></path>
</svg>